<svg width="43" height="44" viewBox="0 0 43 44" fill="none" xmlns="http://www.w3.org/2000/svg">
<path d="M5.48366 25.1135H4.14618V26.4821H5.48366V25.1135Z" fill="#193651"/>
<path d="M5.48366 29.1508H4.14618V30.5194H5.48366V29.1508Z" fill="#193651"/>
<path d="M5.48366 33.2566H4.14618V34.6252H5.48366V33.2566Z" fill="#193651"/>
<path d="M14.9798 26.619C14.8461 28.056 14.9798 29.5614 15.3142 30.9985L12.7061 32.9829L14.6454 36.8149L17.7216 35.7885C18.6579 36.9518 19.7947 37.9098 20.9985 38.6625L20.5304 41.8787L24.5428 43.1789L26.014 40.2364C27.4184 40.3733 28.8896 40.2364 30.294 39.8943L32.2333 42.563L35.9783 40.5786L34.9751 37.4308C36.112 36.4728 37.0482 35.3095 37.717 34.0778L40.9269 34.5568L42.1975 30.451L39.322 28.8771C39.4557 27.4401 39.322 25.9347 38.9876 24.4977L41.5957 22.5132L39.5895 18.6812L36.5133 19.7076C35.577 18.5443 34.4402 17.5863 33.2364 16.8336L33.7045 13.549L29.6921 12.2488L28.2209 15.2597C26.8165 15.1229 25.3453 15.2597 23.9409 15.6019L22.0016 12.9331L18.2566 14.9176L19.2597 18.0653C18.1229 19.0233 17.1867 20.1866 16.5179 21.4184L13.308 20.9394L12.0374 25.0451L14.9798 26.619Z" fill="white"/>
<path d="M27.1015 37.7002C32.4569 37.7002 36.7983 33.2579 36.7983 27.778C36.7983 22.2981 32.4569 17.8558 27.1015 17.8558C21.7462 17.8558 17.4048 22.2981 17.4048 27.778C17.4048 33.2579 21.7462 37.7002 27.1015 37.7002Z" fill="#FDBF5E"/>
<path d="M24.4759 31.3406H23.4727V26.2768C23.4727 25.3872 22.804 24.703 21.9346 24.703C21.0653 24.703 20.3965 25.3872 20.3965 26.2768V31.3406H19.3934V26.2768C19.3934 24.8398 20.5303 23.6765 21.9346 23.6765C23.339 23.6765 24.4759 24.8398 24.4759 26.2768V31.3406Z" fill="#193651"/>
<path d="M26.8165 31.3406H25.8134V23.6765H28.4883C29.5583 23.6765 30.4277 24.5661 30.4277 25.661V26.5505C30.4277 27.6454 29.5583 28.535 28.4883 28.535H26.8165V31.3406ZM26.8165 27.5086H28.4883C29.0233 27.5086 29.4246 27.098 29.4246 26.5505V25.661C29.4246 25.1135 29.0233 24.703 28.4883 24.703H26.8165V27.5086Z" fill="#193651"/>
<path d="M34.3732 24.703V23.6765H31.4308V24.703H32.4339V30.7932H31.4308V31.8196H34.3732V30.7932H33.437V24.703H34.3732Z" fill="#193651"/>
<path d="M23.9409 27.0295H19.8616V28.056H23.9409V27.0295Z" fill="#193651"/>
<path d="M23.1384 7.32192C23.1384 7.25349 23.1384 7.18506 23.1384 7.11663C23.1384 3.62674 20.3297 0.752716 16.9191 0.752716C14.5786 0.752716 12.5723 2.05287 11.5024 3.96889C10.7667 3.2846 9.76363 2.87402 8.62677 2.87402C6.21931 2.87402 4.21309 4.9269 4.21309 7.39035V7.45878C2.13999 8.27993 0.668762 10.4012 0.668762 12.8647C0.668762 16.0809 3.20998 18.6127 6.28618 18.6127H21.5335C24.6765 18.6127 27.1509 16.0124 27.1509 12.8647C27.2846 10.2644 25.5459 8.00621 23.1384 7.32192Z" fill="white"/>
<path d="M39.9907 28.4666C40.0575 27.2348 39.9907 26.0031 39.6563 24.7714L42.3313 22.7185L39.8569 17.86L36.647 18.9549C35.8445 17.9969 34.9082 17.2442 33.8383 16.5599L34.3733 13.1384L29.2908 11.4961L27.8196 14.5754C27.7527 14.5754 27.6858 14.5754 27.6858 14.5754C27.8196 14.028 27.8865 13.4806 27.8865 12.8647C27.8865 10.196 26.2146 7.73251 23.8072 6.84293C23.6734 3.07932 20.6641 0.0684357 16.9191 0.0684357C14.7123 0.0684357 12.6392 1.1633 11.3017 3.01089C10.4992 2.53189 9.56299 2.25817 8.62675 2.25817C5.95179 2.25817 3.74495 4.37948 3.54432 7.04822C1.33748 8.14309 0 10.3328 0 12.8647C0 16.423 2.80871 19.2971 6.28616 19.2971H17.1198C16.7854 19.7761 16.451 20.1866 16.1166 20.7341L12.7729 20.1866L11.2348 25.4557L14.2442 26.9611C14.1773 28.1929 14.2442 29.4246 14.5785 30.6563L11.9036 32.7092L14.3779 37.5677L17.5879 36.4728C18.3904 37.4308 19.3266 38.1835 20.3966 38.8678L19.8616 42.2893L24.944 43.9316L26.4152 40.8523C27.619 40.9207 28.8227 40.7838 30.0264 40.5101L32.0327 43.2473L36.7807 40.7154L35.7107 37.4308C36.647 36.6097 37.3826 35.6516 38.0513 34.5568L41.395 35.1042L43 29.8352L39.9907 28.4666ZM1.40435 12.8647C1.40435 10.7434 2.60809 8.89581 4.54743 8.14309L4.94868 7.86937V7.39037C4.94868 5.26906 6.62053 3.55833 8.69362 3.55833C9.56299 3.55833 10.4323 3.90047 11.1011 4.44791L11.703 4.99534L12.1711 4.31105C13.1742 2.53189 14.9798 1.43702 16.986 1.43702C20.0622 1.43702 22.5365 3.9689 22.5365 7.11665V7.86937L23.0047 8.00623C25.1446 8.62209 26.6159 10.675 26.6159 12.9331C26.6159 15.7387 24.409 17.9969 21.6672 17.9969H6.35303C3.6112 17.9969 1.40435 15.6703 1.40435 12.8647ZM40.4588 33.7356L37.3826 33.2566L37.1151 33.6672C36.4463 34.8989 35.577 35.9938 34.507 36.8834L34.1726 37.1571L35.1757 40.168L32.4339 41.605L30.5614 39.0047L30.0933 39.1415C28.7558 39.4837 27.4184 39.6205 26.014 39.4837L25.5459 39.4153L24.2084 42.3577L21.2659 41.3997L21.7341 38.252L21.3328 38.0467C20.1291 37.3624 19.126 36.4728 18.1897 35.3779L17.9222 35.0358L14.9798 36.0622L13.5754 33.2566L16.1166 31.3406L15.9829 30.8616C15.6485 29.493 15.5148 28.1244 15.6485 26.6874L15.7154 26.2084L12.8398 24.7714L13.776 21.7605L16.8523 22.2395L17.0529 21.8289C17.5879 20.9394 18.1897 20.0498 18.9253 19.3655H21.5334C23.9409 19.3655 26.014 17.9969 27.084 15.944C27.4184 15.944 27.7527 15.944 28.0871 16.0125L28.5552 16.0809L29.9596 13.2069L32.902 14.1649L32.5008 17.2442L32.902 17.4495C34.1058 18.1338 35.1089 19.0233 36.0451 20.1182L36.3126 20.4604L39.2551 19.4339L40.6594 22.2395L38.1182 24.1555L38.2519 24.6345C38.5863 26.0031 38.7201 27.3717 38.5863 28.8087L38.5194 29.2877L41.3281 30.7247L40.4588 33.7356Z" fill="#193651"/>
<path d="M16.3173 13.2068H19.7278V9.71694L18.7247 10.7434L14.7123 6.5692L13.3079 8.00621L17.3872 12.1804L16.3173 13.2068Z" fill="#2EA2DB"/>
<path d="M11.2349 8.62209H7.82428V12.112L8.89426 11.0855L12.9067 15.2597L14.3111 13.8227L10.2317 9.64852L11.2349 8.62209Z" fill="#F16051"/>
</svg>
