<svg width="575" height="308" viewBox="0 0 575 308" fill="none" xmlns="http://www.w3.org/2000/svg">
<g clip-path="url(#clip0)">
<path opacity="0.1" d="M574.814 197.692C574.821 206.059 573.663 214.387 571.372 222.439C569.158 230.202 565.902 237.633 561.69 244.532C561.69 269.528 544.697 291.132 520.031 301.41C509.724 305.662 498.667 307.833 487.507 307.796H109.119C88.8952 307.796 70.1534 302.378 54.7832 293.148C50.3843 290.518 46.2115 287.533 42.3071 284.222C25.2235 269.643 14.6316 249.496 14.6316 227.244C5.04375 212.584 -0.040185 195.47 -1.55571e-05 177.99C-1.55571e-05 141.388 21.8017 109.915 53.0346 96.0202C57.182 94.176 61.4675 92.6547 65.8524 91.47C67.4033 91.0509 68.971 90.675 70.5554 90.3424C74.7791 89.4493 79.0632 88.8656 83.3731 88.5961C84.9308 88.4997 86.4968 88.4448 88.0711 88.4315H88.9354C90.6739 88.4315 92.3973 88.4914 94.1107 88.5911L94.6735 87.6432C95.3635 86.499 96.0703 85.3664 96.7938 84.2455C98.1002 82.2032 99.4703 80.1908 100.904 78.2084C102.405 76.1162 103.971 74.0573 105.602 72.0316L106.019 71.5327C106.944 70.3885 107.888 69.2576 108.853 68.14C111.868 64.6508 115.05 61.2664 118.4 57.9867C154.632 22.7223 211.395 0.0209351 275.207 0.0209351C324.86 0.0209351 370.248 13.7665 405.013 36.4778C418.183 29.077 433.061 25.1936 448.194 25.207C497.305 25.207 537.13 65.306 537.13 114.77C537.122 117.9 536.954 121.027 536.627 124.14C548.465 132.461 558.114 143.487 564.76 156.289C571.406 169.09 574.855 183.29 574.814 197.692Z" fill="white"/>
<path opacity="0.2" d="M118.41 57.9658V68.119H108.863C111.854 64.6332 115.036 61.2488 118.41 57.9658Z" fill="white"/>
<path opacity="0.2" d="M135.93 55.3913H123.113V68.119H135.93V55.3913Z" fill="white"/>
<path opacity="0.2" d="M153.446 55.3913H140.628V68.119H153.446V55.3913Z" fill="white"/>
<path opacity="0.2" d="M170.967 55.3913H158.149V68.119H170.967V55.3913Z" fill="white"/>
<path opacity="0.2" d="M188.483 55.3913H175.665V68.119H188.483V55.3913Z" fill="white"/>
<path opacity="0.2" d="M206.003 55.3913H193.186V68.119H206.003V55.3913Z" fill="white"/>
<path d="M223.524 55.3913H210.706V68.119H223.524V55.3913Z" fill="white"/>
<path opacity="0.2" d="M241.04 55.3913H228.222V68.119H241.04V55.3913Z" fill="white"/>
<path opacity="0.2" d="M258.561 55.3913H245.743V68.119H258.561V55.3913Z" fill="white"/>
<path opacity="0.2" d="M276.077 55.3913H263.259V68.119H276.077V55.3913Z" fill="white"/>
<path d="M293.597 55.3913H280.78V68.119H293.597V55.3913Z" fill="white"/>
<path opacity="0.2" d="M311.118 55.3913H298.3V68.119H311.118V55.3913Z" fill="white"/>
<path opacity="0.2" d="M328.634 55.3913H315.816V68.119H328.634V55.3913Z" fill="white"/>
<path opacity="0.2" d="M346.155 55.3913H333.337V68.119H346.155V55.3913Z" fill="white"/>
<path opacity="0.2" d="M363.675 55.3913H350.858V68.119H363.675V55.3913Z" fill="white"/>
<path opacity="0.2" d="M381.191 55.3913H368.373V68.119H381.191V55.3913Z" fill="white"/>
<path opacity="0.2" d="M398.712 55.3913H385.894V68.119H398.712V55.3913Z" fill="white"/>
<path d="M416.228 55.3913H403.41V68.119H416.228V55.3913Z" fill="white"/>
<path d="M433.748 55.3913H420.931V68.119H433.748V55.3913Z" fill="white"/>
<path opacity="0.2" d="M451.269 55.3913H438.451V68.119H451.269V55.3913Z" fill="white"/>
<path opacity="0.2" d="M468.785 55.3913H455.967V68.119H468.785V55.3913Z" fill="white"/>
<path d="M486.306 55.3913H473.488V68.119H486.306V55.3913Z" fill="white"/>
<path d="M503.821 55.3913H491.004V68.119H503.821V55.3913Z" fill="white"/>
<path d="M100.894 78.2024V84.2395H96.7838C98.0902 82.1839 99.4602 80.1715 100.894 78.2024Z" fill="white"/>
<path opacity="0.2" d="M118.41 71.5117H105.592V84.2395H118.41V71.5117Z" fill="white"/>
<path d="M135.93 71.5117H123.113V84.2395H135.93V71.5117Z" fill="white"/>
<path opacity="0.2" d="M153.446 71.5117H140.628V84.2395H153.446V71.5117Z" fill="white"/>
<path opacity="0.7" d="M170.967 71.5117H158.149V84.2395H170.967V71.5117Z" fill="white"/>
<path opacity="0.2" d="M188.483 71.5117H175.665V84.2395H188.483V71.5117Z" fill="white"/>
<path opacity="0.4" d="M206.003 71.5117H193.186V84.2395H206.003V71.5117Z" fill="white"/>
<path d="M223.524 71.5117H210.706V84.2395H223.524V71.5117Z" fill="white"/>
<path opacity="0.4" d="M241.04 71.5117H228.222V84.2395H241.04V71.5117Z" fill="white"/>
<path opacity="0.2" d="M258.561 71.5117H245.743V84.2395H258.561V71.5117Z" fill="white"/>
<path opacity="0.4" d="M276.077 71.5117H263.259V84.2395H276.077V71.5117Z" fill="white"/>
<path d="M293.597 71.5117H280.78V84.2395H293.597V71.5117Z" fill="white"/>
<path opacity="0.4" d="M311.118 71.5117H298.3V84.2395H311.118V71.5117Z" fill="white"/>
<path opacity="0.4" d="M328.634 71.5117H315.816V84.2395H328.634V71.5117Z" fill="white"/>
<path opacity="0.2" d="M346.155 71.5117H333.337V84.2395H346.155V71.5117Z" fill="white"/>
<path opacity="0.4" d="M363.675 71.5117H350.858V84.2395H363.675V71.5117Z" fill="white"/>
<path opacity="0.4" d="M381.191 71.5117H368.373V84.2395H381.191V71.5117Z" fill="white"/>
<path opacity="0.2" d="M398.712 71.5117H385.894V84.2395H398.712V71.5117Z" fill="white"/>
<path opacity="0.2" d="M416.228 71.5117H403.41V84.2395H416.228V71.5117Z" fill="white"/>
<path opacity="0.4" d="M433.748 71.5117H420.931V84.2395H433.748V71.5117Z" fill="white"/>
<path opacity="0.2" d="M451.269 71.5117H438.451V84.2395H451.269V71.5117Z" fill="white"/>
<path d="M468.785 71.5117H455.967V84.2395H468.785V71.5117Z" fill="white"/>
<path d="M486.306 71.5117H473.488V84.2395H486.306V71.5117Z" fill="white"/>
<path d="M503.821 71.5117H491.004V84.2395H503.821V71.5117Z" fill="white"/>
<path opacity="0.2" d="M65.8524 91.469V100.365H53.0346V96.0193C57.182 94.175 61.4675 92.6537 65.8524 91.469Z" fill="white"/>
<path opacity="0.2" d="M83.3732 88.5952V100.365H70.5554V90.3414L83.3732 88.5952Z" fill="white"/>
<path d="M100.889 87.6372H88.0712V100.365H100.889V87.6372Z" fill="white"/>
<path opacity="0.7" d="M118.41 87.6372H105.592V100.365H118.41V87.6372Z" fill="white"/>
<path d="M135.93 87.6372H123.113V100.365H135.93V87.6372Z" fill="white"/>
<path opacity="0.7" d="M153.446 87.6372H140.628V100.365H153.446V87.6372Z" fill="white"/>
<path opacity="0.7" d="M170.967 87.6372H158.149V100.365H170.967V87.6372Z" fill="white"/>
<path opacity="0.2" d="M188.483 87.6372H175.665V100.365H188.483V87.6372Z" fill="white"/>
<path opacity="0.4" d="M206.003 87.6372H193.186V100.365H206.003V87.6372Z" fill="white"/>
<path opacity="0.4" d="M223.524 87.6372H210.706V100.365H223.524V87.6372Z" fill="white"/>
<path d="M241.04 87.6372H228.222V100.365H241.04V87.6372Z" fill="white"/>
<path opacity="0.2" d="M258.561 87.6372H245.743V100.365H258.561V87.6372Z" fill="white"/>
<path opacity="0.4" d="M276.077 87.6372H263.259V100.365H276.077V87.6372Z" fill="white"/>
<path d="M293.597 87.6372H280.78V100.365H293.597V87.6372Z" fill="white"/>
<path opacity="0.2" d="M311.118 87.6372H298.3V100.365H311.118V87.6372Z" fill="white"/>
<path opacity="0.4" d="M328.634 87.6372H315.816V100.365H328.634V87.6372Z" fill="white"/>
<path opacity="0.2" d="M346.155 87.6372H333.337V100.365H346.155V87.6372Z" fill="white"/>
<path d="M363.675 87.6372H350.858V100.365H363.675V87.6372Z" fill="white"/>
<path opacity="0.2" d="M381.191 87.6372H368.373V100.365H381.191V87.6372Z" fill="white"/>
<path opacity="0.7" d="M398.712 87.6372H385.894V100.365H398.712V87.6372Z" fill="white"/>
<path opacity="0.7" d="M416.228 87.6372H403.41V100.365H416.228V87.6372Z" fill="white"/>
<path opacity="0.4" d="M433.748 87.6372H420.931V100.365H433.748V87.6372Z" fill="white"/>
<path opacity="0.2" d="M451.269 87.6372H438.451V100.365H451.269V87.6372Z" fill="white"/>
<path d="M468.785 87.6372H455.967V100.365H468.785V87.6372Z" fill="white"/>
<path d="M486.306 87.6372H473.488V100.365H486.306V87.6372Z" fill="white"/>
<path d="M503.821 87.6372H491.004V100.365H503.821V87.6372Z" fill="white"/>
<path opacity="0.2" d="M65.8524 103.758H53.0346V116.485H65.8524V103.758Z" fill="white"/>
<path opacity="0.2" d="M83.3732 103.758H70.5554V116.485H83.3732V103.758Z" fill="white"/>
<path opacity="0.2" d="M100.889 103.758H88.0712V116.485H100.889V103.758Z" fill="white"/>
<path opacity="0.2" d="M118.41 103.758H105.592V116.485H118.41V103.758Z" fill="white"/>
<path d="M135.93 103.758H123.113V116.485H135.93V103.758Z" fill="white"/>
<path opacity="0.7" d="M153.446 103.758H140.628V116.485H153.446V103.758Z" fill="white"/>
<path opacity="0.7" d="M170.967 103.758H158.149V116.485H170.967V103.758Z" fill="white"/>
<path opacity="0.2" d="M188.483 103.758H175.665V116.485H188.483V103.758Z" fill="white"/>
<path opacity="0.2" d="M206.003 103.758H193.186V116.485H206.003V103.758Z" fill="white"/>
<path opacity="0.4" d="M223.524 103.758H210.706V116.485H223.524V103.758Z" fill="white"/>
<path opacity="0.4" d="M241.04 103.758H228.222V116.485H241.04V103.758Z" fill="white"/>
<path d="M258.561 103.758H245.743V116.485H258.561V103.758Z" fill="white"/>
<path opacity="0.2" d="M276.077 103.758H263.259V116.485H276.077V103.758Z" fill="white"/>
<path opacity="0.4" d="M293.597 103.758H280.78V116.485H293.597V103.758Z" fill="white"/>
<path opacity="0.4" d="M311.118 103.758H298.3V116.485H311.118V103.758Z" fill="white"/>
<path opacity="0.4" d="M328.634 103.758H315.816V116.485H328.634V103.758Z" fill="white"/>
<path opacity="0.4" d="M346.155 103.758H333.337V116.485H346.155V103.758Z" fill="white"/>
<path opacity="0.2" d="M363.675 103.758H350.858V116.485H363.675V103.758Z" fill="white"/>
<path opacity="0.2" d="M381.191 103.758H368.373V116.485H381.191V103.758Z" fill="white"/>
<path opacity="0.2" d="M398.712 103.758H385.894V116.485H398.712V103.758Z" fill="white"/>
<path opacity="0.2" d="M416.228 103.758H403.41V116.485H416.228V103.758Z" fill="white"/>
<path opacity="0.7" d="M433.748 103.758H420.931V116.485H433.748V103.758Z" fill="white"/>
<path opacity="0.7" d="M451.269 103.758H438.451V116.485H451.269V103.758Z" fill="white"/>
<path opacity="0.4" d="M468.785 103.758H455.967V116.485H468.785V103.758Z" fill="white"/>
<path opacity="0.2" d="M486.306 103.758H473.488V116.485H486.306V103.758Z" fill="white"/>
<path d="M503.821 103.758H491.004V116.485H503.821V103.758Z" fill="white"/>
<path opacity="0.2" d="M65.8524 119.883H53.0346V132.611H65.8524V119.883Z" fill="white"/>
<path opacity="0.2" d="M83.3732 119.883H70.5554V132.611H83.3732V119.883Z" fill="white"/>
<path opacity="0.4" d="M100.889 119.883H88.0712V132.611H100.889V119.883Z" fill="white"/>
<path opacity="0.2" d="M118.41 119.883H105.592V132.611H118.41V119.883Z" fill="white"/>
<path opacity="0.2" d="M135.93 119.883H123.113V132.611H135.93V119.883Z" fill="white"/>
<path opacity="0.7" d="M153.446 119.883H140.628V132.611H153.446V119.883Z" fill="white"/>
<path opacity="0.7" d="M170.967 119.883H158.149V132.611H170.967V119.883Z" fill="white"/>
<path opacity="0.2" d="M188.483 119.883H175.665V132.611H188.483V119.883Z" fill="white"/>
<path opacity="0.2" d="M206.003 119.883H193.186V132.611H206.003V119.883Z" fill="white"/>
<path opacity="0.4" d="M223.524 119.883H210.706V132.611H223.524V119.883Z" fill="white"/>
<path d="M241.04 119.883H228.222V132.611H241.04V119.883Z" fill="white"/>
<path opacity="0.2" d="M258.561 119.883H245.743V132.611H258.561V119.883Z" fill="white"/>
<path d="M276.077 119.883H263.259V132.611H276.077V119.883Z" fill="white"/>
<path d="M293.597 119.883H280.78V132.611H293.597V119.883Z" fill="white"/>
<path d="M311.118 119.883H298.3V132.611H311.118V119.883Z" fill="white"/>
<path opacity="0.2" d="M328.634 119.883H315.816V132.611H328.634V119.883Z" fill="white"/>
<path d="M346.155 119.883H333.337V132.611H346.155V119.883Z" fill="white"/>
<path opacity="0.2" d="M363.675 119.883H350.858V132.611H363.675V119.883Z" fill="white"/>
<path opacity="0.2" d="M381.191 119.883H368.373V132.611H381.191V119.883Z" fill="white"/>
<path opacity="0.2" d="M398.712 119.883H385.894V132.611H398.712V119.883Z" fill="white"/>
<path opacity="0.2" d="M416.228 119.883H403.41V132.611H416.228V119.883Z" fill="white"/>
<path opacity="0.2" d="M433.748 119.883H420.931V132.611H433.748V119.883Z" fill="white"/>
<path opacity="0.7" d="M451.269 119.883H438.451V132.611H451.269V119.883Z" fill="white"/>
<path opacity="0.2" d="M468.785 119.883H455.967V132.611H468.785V119.883Z" fill="white"/>
<path opacity="0.2" d="M486.306 119.883H473.488V132.611H486.306V119.883Z" fill="white"/>
<path d="M503.821 119.883H491.004V132.611H503.821V119.883Z" fill="white"/>
<path opacity="0.2" d="M65.8524 136.004H53.0346V148.731H65.8524V136.004Z" fill="white"/>
<path opacity="0.2" d="M83.3732 136.004H70.5554V148.731H83.3732V136.004Z" fill="white"/>
<path opacity="0.2" d="M100.889 136.004H88.0712V148.731H100.889V136.004Z" fill="white"/>
<path opacity="0.4" d="M118.41 136.004H105.592V148.731H118.41V136.004Z" fill="white"/>
<path opacity="0.2" d="M135.93 136.004H123.113V148.731H135.93V136.004Z" fill="white"/>
<path opacity="0.2" d="M153.446 136.004H140.628V148.731H153.446V136.004Z" fill="white"/>
<path opacity="0.7" d="M170.967 136.004H158.149V148.731H170.967V136.004Z" fill="white"/>
<path opacity="0.2" d="M188.483 136.004H175.665V148.731H188.483V136.004Z" fill="white"/>
<path opacity="0.2" d="M206.003 136.004H193.186V148.731H206.003V136.004Z" fill="white"/>
<path opacity="0.2" d="M223.524 136.004H210.706V148.731H223.524V136.004Z" fill="white"/>
<path d="M241.04 136.004H228.222V148.731H241.04V136.004Z" fill="white"/>
<path opacity="0.2" d="M258.561 136.004H245.743V148.731H258.561V136.004Z" fill="white"/>
<path d="M276.077 136.004H263.259V148.731H276.077V136.004Z" fill="white"/>
<path d="M293.597 136.004H280.78V148.731H293.597V136.004Z" fill="white"/>
<path opacity="0.2" d="M311.118 136.004H298.3V148.731H311.118V136.004Z" fill="white"/>
<path opacity="0.2" d="M328.634 136.004H315.816V148.731H328.634V136.004Z" fill="white"/>
<path opacity="0.2" d="M346.155 136.004H333.337V148.731H346.155V136.004Z" fill="white"/>
<path opacity="0.2" d="M363.675 136.004H350.858V148.731H363.675V136.004Z" fill="white"/>
<path opacity="0.2" d="M381.191 136.004H368.373V148.731H381.191V136.004Z" fill="white"/>
<path opacity="0.2" d="M398.712 136.004H385.894V148.731H398.712V136.004Z" fill="white"/>
<path opacity="0.2" d="M416.228 136.004H403.41V148.731H416.228V136.004Z" fill="white"/>
<path opacity="0.2" d="M433.748 136.004H420.931V148.731H433.748V136.004Z" fill="white"/>
<path opacity="0.2" d="M451.269 136.004H438.451V148.731H451.269V136.004Z" fill="white"/>
<path opacity="0.2" d="M468.785 136.004H455.967V148.731H468.785V136.004Z" fill="white"/>
<path opacity="0.4" d="M486.306 136.004H473.488V148.731H486.306V136.004Z" fill="white"/>
<path d="M503.821 136.004H491.004V148.731H503.821V136.004Z" fill="white"/>
<path opacity="0.7" d="M65.8524 152.129H53.0346V164.857H65.8524V152.129Z" fill="white"/>
<path opacity="0.7" d="M83.3732 152.129H70.5554V164.857H83.3732V152.129Z" fill="white"/>
<path opacity="0.7" d="M100.889 152.129H88.0712V164.857H100.889V152.129Z" fill="white"/>
<path opacity="0.7" d="M118.41 152.129H105.592V164.857H118.41V152.129Z" fill="white"/>
<path opacity="0.7" d="M135.93 152.129H123.113V164.857H135.93V152.129Z" fill="white"/>
<path opacity="0.2" d="M153.446 152.129H140.628V164.857H153.446V152.129Z" fill="white"/>
<path opacity="0.2" d="M170.967 152.129H158.149V164.857H170.967V152.129Z" fill="white"/>
<path opacity="0.2" d="M188.483 152.129H175.665V164.857H188.483V152.129Z" fill="white"/>
<path opacity="0.2" d="M206.003 152.129H193.186V164.857H206.003V152.129Z" fill="white"/>
<path opacity="0.2" d="M223.524 152.129H210.706V164.857H223.524V152.129Z" fill="white"/>
<path opacity="0.2" d="M241.04 152.129H228.222V164.857H241.04V152.129Z" fill="white"/>
<path d="M258.561 152.129H245.743V164.857H258.561V152.129Z" fill="white"/>
<path opacity="0.2" d="M276.077 152.129H263.259V164.857H276.077V152.129Z" fill="white"/>
<path opacity="0.2" d="M293.597 152.129H280.78V164.857H293.597V152.129Z" fill="white"/>
<path opacity="0.2" d="M311.118 152.129H298.3V164.857H311.118V152.129Z" fill="white"/>
<path d="M328.634 152.129H315.816V164.857H328.634V152.129Z" fill="white"/>
<path opacity="0.2" d="M346.155 152.129H333.337V164.857H346.155V152.129Z" fill="white"/>
<path opacity="0.2" d="M363.675 152.129H350.858V164.857H363.675V152.129Z" fill="white"/>
<path opacity="0.2" d="M381.191 152.129H368.373V164.857H381.191V152.129Z" fill="white"/>
<path opacity="0.2" d="M398.712 152.129H385.894V164.857H398.712V152.129Z" fill="white"/>
<path opacity="0.2" d="M416.228 152.129H403.41V164.857H416.228V152.129Z" fill="white"/>
<path opacity="0.2" d="M433.748 152.129H420.931V164.857H433.748V152.129Z" fill="white"/>
<path opacity="0.2" d="M451.269 152.129H438.451V164.857H451.269V152.129Z" fill="white"/>
<path opacity="0.2" d="M468.785 152.129H455.967V164.857H468.785V152.129Z" fill="white"/>
<path opacity="0.2" d="M486.306 152.129H473.488V164.857H486.306V152.129Z" fill="white"/>
<path d="M503.821 152.129H491.004V164.857H503.821V152.129Z" fill="white"/>
<path d="M369.067 198.954C378.743 198.954 386.588 191.164 386.588 181.556C386.588 171.947 378.743 164.158 369.067 164.158C359.39 164.158 351.546 171.947 351.546 181.556C351.546 191.164 359.39 198.954 369.067 198.954Z" fill="#767D9F"/>
<path d="M368.157 159.423C369.906 167 371.39 174.634 372.609 182.324C372.976 184.609 373.302 187.019 372.468 189.18C371.77 190.981 370.348 192.388 369.233 193.964C368.117 195.541 367.273 197.562 367.951 199.368C368.63 201.174 370.609 202.162 372.499 202.671C377.905 204.118 383.668 203.065 389.05 201.498C391.486 200.875 393.822 199.915 395.989 198.644C398.27 197.207 400.139 195.212 401.857 193.156C409.701 183.711 414.836 172.376 419.669 161.11C416.564 161.39 413.435 160.933 410.542 159.776C407.649 158.619 405.075 156.794 403.033 154.454C401.053 152.144 399.601 148.926 400.717 146.102C397.446 147.883 393.562 148.003 390.039 149.22C387.855 150.049 385.753 151.076 383.759 152.289C381.354 153.669 378.962 155.076 376.584 156.51C373.865 158.136 371.318 159.583 368.157 159.423Z" fill="#AE6E79"/>
<path d="M404.802 172.485C401.732 178.418 397.737 184.12 392.034 187.653C386.331 191.185 378.654 192.143 372.941 188.651C370.127 186.944 367.997 184.35 365.539 182.165C363.082 179.979 360.012 178.108 356.711 178.393C353.073 178.707 350.225 181.526 347.788 184.225C344.089 188.326 340.517 192.602 337.899 197.457C332.875 206.787 331.684 217.694 331.905 228.271C332.126 238.848 333.668 249.371 333.704 259.948C333.754 272.96 331.533 285.867 329.287 298.685C349.938 296.16 370.614 301.679 391.311 303.769C404.555 305.121 417.901 305.091 431.216 305.056C433.557 305.056 436.05 304.996 437.999 303.709C439.191 302.846 440.154 301.709 440.808 300.396C442.647 297.029 443.386 293.187 443.898 289.39C445.199 279.8 445.24 270.091 445.275 260.412C445.365 236.962 445.451 213.428 442.451 190.162C441.712 184.44 440.768 178.687 438.557 173.334C436.346 167.98 432.738 163.056 427.694 160.187C424.453 158.341 416.941 155.128 413.122 156.989C408.836 159.064 406.857 168.514 404.802 172.485Z" fill="#767D9F"/>
<path d="M406.329 238.704C405.55 224.235 402.38 208.793 409.128 195.95C410.786 192.797 404.837 188.86 406.676 185.807C408.92 182.084 410.622 178.064 411.731 173.867C412.112 172.426 412.419 170.899 412.057 169.452C411.389 166.813 408.761 165.241 406.53 163.634C404.068 161.858 402.802 156.445 402.008 153.516C401.214 150.587 408.324 154.115 411.183 153.072C415.152 151.63 420.197 152.538 424.156 154C426.367 154.808 428.769 154.878 431.126 154.938C435.703 155.058 440.295 155.172 444.838 154.614C446.878 154.359 448.923 153.975 450.973 154.09C456.203 154.384 460.751 157.937 463.846 162.138C466.941 166.339 468.911 171.233 471.448 175.783C473.563 179.575 476.086 183.158 477.889 187.104C479.487 190.597 480.497 194.349 481.497 198.081L484.075 207.655C484.526 209.025 484.74 210.46 484.708 211.901C484.577 213.433 483.894 214.86 483.2 216.222C480.578 221.27 477.435 226.034 473.82 230.436C468.398 237.037 461.816 242.989 458.595 250.892C457.339 253.971 456.64 257.244 456.002 260.507C453.43 273.557 451.601 286.742 450.526 299.997C444.654 297.299 438.5 295.256 432.176 293.905C429.023 293.235 425.836 292.736 422.629 292.408C419.82 292.119 416.197 292.668 413.524 291.909C409.052 290.647 408.56 283.138 407.882 279.207C406.796 272.945 406.58 266.574 406.54 260.247C406.49 253.053 406.716 245.873 406.329 238.704Z" fill="#0E3A54"/>
<path d="M308.123 211.646C310.239 223.621 312.57 235.63 317.168 246.881C317.052 246.991 316.937 247.091 316.821 247.19C316.414 247.535 315.992 247.859 315.55 248.188C314.52 248.907 313.389 249.515 312.535 250.453C312.212 250.812 311.956 251.226 311.781 251.676C311.623 252.027 311.542 252.407 311.542 252.791C311.542 253.175 311.623 253.555 311.781 253.906C309.385 254.959 306.601 254.634 303.913 254.535C301.596 254.45 299.35 254.535 297.491 255.797C294.909 257.563 294.13 260.956 293.713 264.039C293.559 265.163 293.426 266.289 293.316 267.417C293.209 268.465 293.122 269.516 293.055 270.57C292.827 274.058 292.795 277.556 292.959 281.048C292.986 281.686 293.021 282.325 293.065 282.964C284.854 282.769 277.373 278.518 270.293 274.387C268.675 273.444 267.007 272.451 265.957 270.895C264.989 269.366 264.58 267.553 264.796 265.761C264.796 265.506 264.842 265.262 264.877 265.002C265.102 263.522 265.488 262.07 266.027 260.671C268.242 254.716 271.507 249.2 275.67 244.381C277.468 242.296 279.493 240.255 280.332 237.636C280.699 236.493 280.835 235.281 281.207 234.143C282.875 229.214 288.894 226.884 290.954 222.099C291.457 220.957 291.688 219.704 292.311 218.607C292.872 217.694 293.596 216.891 294.446 216.237C294.813 215.932 295.195 215.638 295.572 215.344C299.103 212.596 302.504 209.694 305.777 206.637C306.387 206.068 306.989 205.493 307.586 204.911C307.506 207.169 307.687 209.429 308.123 211.646Z" fill="#0E3A54"/>
<path d="M358.756 176.232C358.033 176.991 357.249 177.704 356.48 178.413L356.274 178.597L355.46 179.346C353.983 180.612 352.704 182.09 351.667 183.731L351.581 183.871C349.019 188.426 349.968 194.034 350.682 199.208C351.567 205.656 351.965 212.16 351.873 218.666C351.742 227.647 350.677 236.568 350.657 245.539C350.657 247.574 350.702 249.605 350.792 251.641C350.938 254.949 351.189 258.252 351.491 261.554C351.817 265.177 352.209 268.794 352.576 272.411C352.867 275.21 353.144 278.004 353.375 280.798C353.49 282.245 353.601 283.687 353.691 285.134C353.797 286.83 353.882 288.532 353.933 290.228C353.968 291.306 353.988 292.378 353.988 293.456C353.988 294.07 353.988 294.678 353.988 295.287C353.988 296.455 353.956 297.619 353.892 298.78C353.825 300.273 353.723 301.77 353.586 303.27C353.43 304.902 353.154 306.683 351.998 307.83C351.928 307.9 351.852 307.965 351.777 308.03L350.149 307.83C338.927 306.496 327.597 306.296 316.334 307.232C316.58 305.545 316.806 303.864 317.027 302.172C317.127 301.374 317.228 300.571 317.323 299.768C317.434 298.85 317.539 297.932 317.64 297.014C317.756 296.016 317.861 295.018 317.962 294.02C318.223 291.449 318.452 288.876 318.65 286.301C318.941 282.546 319.162 278.784 319.313 275.016C319.387 273.216 319.444 271.415 319.484 269.612C319.541 267.377 319.568 265.14 319.564 262.902C319.564 260.726 319.546 258.548 319.509 256.366C319.509 255.647 319.479 254.929 319.419 254.215C319.375 253.573 319.286 252.934 319.152 252.304C318.779 250.852 318.275 249.436 317.645 248.073C317.534 247.814 317.429 247.574 317.323 247.3C317.263 247.165 317.208 247.026 317.153 246.891C320.047 244.331 322.107 240.904 324.087 237.531C327.297 232.098 330.583 226.425 331.121 220.148C331.659 213.872 328.518 206.822 322.479 204.906C320.836 204.407 319.097 204.267 317.404 203.973C315.806 203.693 312.475 203.06 310.626 201.922C309.621 202.947 308.616 203.953 307.611 204.941C307.672 203.434 308.043 201.955 308.701 200.595L309.415 200.63C309.357 200.47 309.329 200.301 309.334 200.131C309.334 199.597 309.706 198.994 310.5 198.325C312.867 196.329 316.59 195.885 318.082 193.186C318.705 192.063 318.811 190.726 319.313 189.549C320.755 186.191 324.896 184.954 327.388 182.269C329.88 179.585 330.503 175.783 332.518 172.79C334.023 170.604 336.11 168.876 338.547 167.8C338.748 167.706 338.954 167.611 339.16 167.526C343.331 165.755 348.285 165.351 352.606 165.361C354.284 165.361 358.636 165.411 360.766 166.254C361.112 166.376 361.428 166.568 361.696 166.818C363.967 169.272 360.434 174.456 358.756 176.232Z" fill="#0E3A54"/>
<path d="M308.872 200.246C312.753 199.086 316.828 198.703 320.86 199.12C324.892 199.537 328.8 200.746 332.357 202.676C335.975 204.671 339.221 207.455 341.21 211.048C344.2 216.436 344.069 222.932 343.858 229.084C343.753 232.162 343.617 235.351 342.25 238.115C340.668 241.313 337.683 243.508 334.638 245.304C332.731 246.513 330.641 247.41 328.448 247.964C325.071 248.692 321.564 248.073 318.163 247.465C314.464 246.786 310.495 245.968 307.927 243.234C306.42 241.647 305.596 239.587 304.782 237.571C303.613 234.66 302.441 231.753 301.265 228.85C299.23 223.805 298.541 219.609 301.23 214.695C302.451 212.455 303.943 210.359 305.149 208.104C305.752 206.957 307.912 200.54 308.872 200.246Z" fill="#0E3A54"/>
<path d="M520.046 286.496V301.414C509.739 305.666 498.682 307.837 487.522 307.8H352.013C351.943 307.87 351.868 307.935 351.792 308L350.164 307.8H109.119C88.8952 307.8 70.1534 302.382 54.7832 293.152V270.376L170.711 257.089H170.801L238.312 262.767L255.782 264.264L264.857 265.027L283.639 266.609L293.301 267.422L307.37 268.609L309.349 268.774L319.489 269.627L333.246 270.75L352.591 272.376L384.839 275.096L407.525 277.006L444.777 280.145L451.862 280.738L452.626 280.803L453.289 280.858L462.645 281.646L472.915 282.515L474.106 282.614L520.046 286.496Z" fill="#504F60"/>
<path d="M383.879 285.947L238.598 261.325L232.965 289.609L299.561 297.527L320.067 300.077L376.473 289.046L383.879 285.947Z" fill="#9C9CA1"/>
<path d="M308.676 298.66L381.462 285.074C381.827 285.005 382.202 285.017 382.561 285.108C382.92 285.2 383.254 285.37 383.539 285.605C383.825 285.84 384.054 286.135 384.211 286.468C384.368 286.802 384.448 287.166 384.447 287.534C384.449 288.118 384.244 288.684 383.868 289.133C383.493 289.583 382.97 289.887 382.392 289.994L311.309 303.21L308.676 298.66Z" fill="#9C9CA1"/>
<path d="M340.251 255.937C342.517 255.727 344.813 255.373 346.853 254.375C349.365 253.133 351.32 250.992 353.646 249.416C358.761 245.923 365.605 245.454 371.469 247.46C377.332 249.465 382.226 253.761 385.653 258.89C387.929 262.308 389.637 266.669 388.03 270.441C387.478 271.593 386.782 272.673 385.959 273.654L381.769 279.092C380.973 280.235 380.015 281.259 378.925 282.13C377.357 283.263 375.408 283.727 373.488 284.006C368.388 284.745 363.198 284.326 358.058 284.665C349.23 285.249 340.607 288.073 331.759 287.978C326.674 287.923 321.655 286.905 316.685 285.887L294.693 281.397C290.864 280.619 286.538 279.481 284.734 276.034C283.925 274.482 283.774 272.686 283.679 270.939C283.417 266.13 283.679 260.781 287.035 257.314C290.191 254.061 295.18 253.033 298.948 250.628C303.561 247.679 305.084 248.632 309.947 250.847C319.436 255.115 329.876 256.868 340.251 255.937Z" fill="#AE6E79"/>
<path opacity="0.05" d="M340.251 255.937C342.517 255.727 344.813 255.373 346.853 254.375C349.365 253.133 351.32 250.992 353.646 249.416C358.761 245.923 365.605 245.454 371.469 247.46C377.332 249.465 382.226 253.761 385.653 258.89C387.929 262.308 389.637 266.669 388.03 270.441C387.478 271.593 386.782 272.673 385.959 273.654L381.769 279.092C380.973 280.235 380.015 281.259 378.925 282.13C377.357 283.263 375.408 283.727 373.488 284.006C368.388 284.745 363.198 284.326 358.058 284.665C349.23 285.249 340.607 288.073 331.759 287.978C326.674 287.923 321.655 286.905 316.685 285.887L294.693 281.397C290.864 280.619 286.538 279.481 284.734 276.034C283.925 274.482 283.774 272.686 283.679 270.939C283.417 266.13 283.679 260.781 287.035 257.314C290.191 254.061 295.18 253.033 298.948 250.628C303.561 247.679 305.084 248.632 309.947 250.847C319.436 255.115 329.876 256.868 340.251 255.937Z" fill="black"/>
<path d="M428.568 249.096C422.398 251.466 416.192 253.846 409.731 255.258C398.898 257.628 387.562 257.254 376.815 259.963C371.137 261.4 365.494 263.715 359.661 263.246C357.053 263.036 354.536 262.248 351.998 261.649C337.743 258.157 321.539 259.289 309.962 268.27C306.003 271.339 302.762 275.165 299.823 279.247C299.194 280.128 298.769 281.137 298.578 282.2C298.387 283.264 298.435 284.356 298.719 285.399C299.003 286.442 299.515 287.41 300.219 288.234C300.923 289.057 301.802 289.716 302.792 290.163C307.294 292.219 312.117 293.496 317.052 293.94C323.649 294.519 330.277 293.591 336.839 292.663C346.577 291.291 356.319 289.914 366.032 288.372C369.519 287.818 373.006 287.244 376.513 286.805C401.752 283.637 427.448 287.489 452.751 284.845C455.309 284.575 457.912 284.226 460.238 283.143C466.127 280.399 469.041 273.165 467.825 266.808C466.609 260.452 461.916 255.168 456.269 251.925C451.535 249.196 446.43 248.093 441.16 246.936C436.266 245.803 433.281 247.3 428.568 249.096Z" fill="#AE6E79"/>
<path opacity="0.1" d="M482.698 211.098C485.482 214.72 486.075 219.579 485.773 224.115C485.472 228.65 484.386 233.135 484.226 237.691C484.004 243.937 485.522 250.164 485.266 256.391C485.085 260.746 484.045 265.017 482.814 269.198C481.362 274.133 479.261 279.436 474.674 281.806C468.584 284.954 455.811 283.183 449.405 285.648C449.988 282.041 455.575 276.817 456.158 273.21C456.56 270.715 456.967 268.15 456.535 265.651C455.982 262.463 454.098 259.634 451.862 257.279C448.305 253.532 443.662 250.713 438.562 249.795C433.462 248.877 420.976 249.63 416.896 252.828C416.393 249.525 425.739 246.342 429.025 245.629C430.663 245.264 432.543 245.469 433.854 244.436C436.366 242.48 434.542 238.584 434.663 235.455C434.758 232.961 436.226 230.676 436.522 228.181C437.024 224.19 434.402 220.123 435.432 216.207C435.813 214.76 436.663 213.488 437.251 212.11C439.039 207.894 438.255 203.085 437.301 198.604C436.708 195.79 436.13 192.617 437.708 190.217C439.17 187.977 443.32 195.955 445.978 195.586C454.756 194.363 462.7 187.902 469.79 193.191C473.403 195.885 473.875 198.679 475.317 202.526C476.719 206.188 480.352 208.064 482.698 211.098Z" fill="black"/>
<path d="M484.205 211.098C486.989 214.72 487.582 219.579 487.28 224.115C486.979 228.65 485.894 233.135 485.733 237.691C485.512 243.937 487.029 250.164 486.773 256.391C486.592 260.746 485.552 265.017 484.321 269.198C482.869 274.133 480.769 279.436 476.181 281.806C470.091 284.954 457.319 283.183 450.912 285.648C451.495 282.041 457.083 276.817 457.665 273.21C458.067 270.715 458.474 268.15 458.042 265.651C457.49 262.463 455.605 259.634 453.369 257.279C449.812 253.532 445.169 250.713 440.069 249.795C434.969 248.877 422.483 249.63 418.403 252.828C417.901 249.525 427.247 246.342 430.533 245.629C432.171 245.264 434.05 245.469 435.361 244.436C437.874 242.48 436.05 238.584 436.17 235.455C436.266 232.961 437.733 230.676 438.029 228.181C438.532 224.19 435.909 220.123 436.939 216.207C437.321 214.76 438.17 213.488 438.758 212.11C440.547 207.895 439.763 203.085 438.808 198.604C438.215 195.79 437.637 192.617 439.215 190.217C440.677 187.977 443.536 187.129 446.194 186.755C455.094 185.56 464.111 187.87 471.317 193.191C474.93 195.885 475.402 198.679 476.844 202.526C478.226 206.188 481.859 208.064 484.205 211.098Z" fill="#0E3A54"/>
<path d="M151.743 187.458L179.062 287.713C179.397 288.942 180.101 290.04 181.08 290.86C182.06 291.681 183.268 292.187 184.543 292.309L307.505 304.038C308.508 304.134 309.518 303.991 310.453 303.619C311.387 303.247 312.219 302.658 312.877 301.902C313.535 301.146 314.002 300.244 314.237 299.272C314.472 298.3 314.469 297.286 314.228 296.315L284.312 175.384C283.956 173.947 283.098 172.681 281.891 171.812C280.684 170.944 279.206 170.528 277.72 170.639L157.335 179.58C156.411 179.652 155.514 179.924 154.708 180.38C153.902 180.835 153.207 181.461 152.673 182.213C152.139 182.966 151.779 183.826 151.618 184.733C151.457 185.639 151.5 186.57 151.743 187.458Z" fill="#9C9CA1"/>
<path d="M395.491 207.021C402.956 207.021 409.007 200.934 409.007 193.426C409.007 185.917 402.956 179.83 395.491 179.83C388.026 179.83 381.975 185.917 381.975 193.426C381.975 200.934 388.026 207.021 395.491 207.021Z" fill="white"/>
<path d="M406.59 168.624C406.59 168.624 409.439 177.036 401.033 180.573L399.958 182.439L405.224 187.598C405.224 187.598 411.716 175.838 411.012 171.662C411.012 171.662 410.007 167.421 406.59 168.624Z" fill="white"/>
<path d="M397.044 207.021C404.242 207.021 410.078 201.227 410.078 194.079C410.078 186.931 404.242 181.137 397.044 181.137C389.845 181.137 384.01 186.931 384.01 194.079C384.01 201.227 389.845 207.021 397.044 207.021Z" fill="white"/>
<path d="M411.077 173.573L409.007 170.18L405.993 169.756C406.636 158.585 403.716 155.257 403.716 155.257L403.038 155.192L400.084 154.908L394.526 149.18V147.554C402.335 148.477 406.651 152.159 408.982 156.475C413.102 164.048 411.077 173.573 411.077 173.573Z" fill="white"/>
<path opacity="0.1" d="M403.063 153.137V155.192L400.109 154.908L394.552 149.18C394.552 149.18 403.149 151.091 403.063 153.137Z" fill="black" stroke="#0E3A54" stroke-miterlimit="10"/>
<path opacity="0.1" d="M411.077 173.573L409.007 170.18V156.495C413.102 164.048 411.077 173.573 411.077 173.573Z" fill="black" stroke="#0E3A54" stroke-miterlimit="10"/>
<path d="M372.959 199.399C376.427 197.411 376.278 190.708 372.626 184.427C368.974 178.146 363.202 174.666 359.734 176.654C356.266 178.642 356.416 185.346 360.068 191.627C363.72 197.907 369.491 201.387 372.959 199.399Z" fill="white"/>
<path d="M368.303 186.929C371.956 193.211 376.438 197.407 372.971 199.403C369.504 201.398 359.404 200.401 355.752 194.114C352.099 187.828 355.415 179.146 358.882 177.15C362.349 175.155 364.645 180.633 368.303 186.929Z" fill="white"/>
<path opacity="0.1" d="M400.827 141.676C400.827 161.748 386.994 181.092 366.781 181.092C357.073 181.092 347.762 177.263 340.897 170.446C334.033 163.63 330.176 154.385 330.176 144.745C330.176 135.105 334.033 125.86 340.897 119.044C347.762 112.227 357.073 108.398 366.781 108.398C386.994 108.418 400.827 121.599 400.827 141.676Z" fill="black"/>
<path d="M366.781 180.114C386.996 180.114 403.385 163.841 403.385 143.767C403.385 123.693 386.996 107.42 366.781 107.42C346.565 107.42 330.176 123.693 330.176 143.767C330.176 163.841 346.565 180.114 366.781 180.114Z" fill="#AE6E79"/>
<path d="M363.565 127.661C367.921 129.253 370.499 133.723 374.408 136.213C379.935 139.706 387.13 138.803 393.441 137.076C396.958 136.123 400.636 134.961 404.098 136.019C404.607 136.242 405.169 136.322 405.721 136.248C406.475 136.034 406.847 135.205 407.093 134.467C411.374 121.794 409.449 107.44 402.988 95.7149C401.32 92.6914 399.32 89.7676 396.566 87.6671C394.396 86.0157 391.843 84.933 389.271 84.01C384.569 82.3333 379.707 81.1413 374.76 80.4526C373.886 80.295 372.994 80.2664 372.112 80.3678C370.901 80.5624 369.815 81.211 368.735 81.7897C364.108 84.2525 358.977 85.6363 353.732 85.8361C346.697 86.1005 338.658 84.454 333.236 88.9344C326.704 94.3079 328.332 104.79 324.097 112.085C321.293 116.909 315.886 120.412 314.997 125.905C314.765 127.584 314.873 129.292 315.314 130.929C317.384 139.381 325.624 145.927 334.407 146.082C335.756 146.184 337.107 145.909 338.306 145.289C339.092 144.756 339.786 144.101 340.361 143.348C346.114 136.582 352.697 123.69 363.565 127.661Z" fill="#444053"/>
<path opacity="0.1" d="M407.093 130.79C406.847 131.528 406.475 132.356 405.721 132.571C405.169 132.645 404.607 132.565 404.098 132.341C400.636 131.284 396.938 132.446 393.446 133.399C387.13 135.125 379.92 136.048 374.413 132.536C370.499 130.041 367.926 125.551 363.565 123.984C352.697 119.993 346.114 132.905 340.346 139.671C339.771 140.424 339.077 141.079 338.291 141.612C337.091 142.232 335.741 142.507 334.392 142.405C325.639 142.25 317.394 135.704 315.299 127.252C315.183 126.753 315.082 126.254 315.007 125.756C315.007 125.8 315.007 125.84 314.982 125.885C314.75 127.564 314.858 129.272 315.299 130.909C317.369 139.361 325.614 145.907 334.392 146.062C335.741 146.164 337.091 145.889 338.291 145.269C339.077 144.736 339.771 144.081 340.346 143.328C346.114 136.562 352.697 123.67 363.565 127.641C367.926 129.233 370.499 133.703 374.413 136.193C379.94 139.686 387.13 138.783 393.446 137.056C396.963 136.103 400.636 134.941 404.098 135.999C404.607 136.222 405.169 136.302 405.721 136.228C406.475 136.014 406.847 135.185 407.093 134.447C408.82 129.262 409.582 123.808 409.344 118.351C409.196 122.583 408.438 126.772 407.093 130.79Z" fill="black"/>
</g>
<defs>
<clipPath id="clip0">
<rect width="574.814" height="308" fill="white"/>
</clipPath>
</defs>
</svg>
