<svg width="46" height="46" viewBox="0 0 46 46" fill="none" xmlns="http://www.w3.org/2000/svg">
<rect width="45.6323" height="45.6323" rx="4" fill="white"/>
<path d="M36.6688 7.33377H8.9635L11.4081 35.0391L22.8162 38.2985L34.2242 35.0391L36.6688 7.33377Z" fill="#0277BD"/>
<path d="M22.8162 9.77835V35.7725L31.9426 33.1649L33.9798 9.77835H22.8162Z" fill="#039BE5"/>
<path d="M30.2314 13.8527H22.8162V17.1121H26.809L26.5645 20.3716H22.8162V23.631H26.4016L26.1571 27.2979L22.8162 28.4387V31.8611L29.2536 29.7425L29.824 20.3716L30.2314 13.8527Z" fill="white"/>
<path d="M22.8161 13.8527V17.1121H15.5639L15.3194 13.8527H22.8161ZM19.0678 20.3716L19.2307 23.631H22.8161V20.3716H19.0678ZM19.3937 25.2607H16.1343L16.3787 29.7425L22.8161 31.8611V28.4387L19.4752 27.2979L19.3937 25.2607Z" fill="#EEEEEE"/>
</svg>
