<svg width="46" height="45" viewBox="0 0 46 45" fill="none" xmlns="http://www.w3.org/2000/svg">
<path d="M8.75 39.375C7.09315 39.375 5.75 38.0318 5.75 36.375V8.625C5.75 6.96815 7.09315 5.625 8.75 5.625H37.25C38.9069 5.625 40.25 6.96815 40.25 8.625V36.375C40.25 38.0318 38.9069 39.375 37.25 39.375H8.75Z" fill="#FFD600"/>
<path d="M28.3072 30.8878C28.9704 31.9416 29.6911 32.9512 31.2177 32.9512C32.5 32.9512 33.1727 32.3278 33.1727 31.4653C33.1727 30.4331 32.477 30.0666 31.0663 29.4656L30.2929 29.1431C28.061 28.2169 26.5765 27.0563 26.5765 24.6047C26.5765 22.3453 28.3446 20.6259 31.1075 20.6259C33.075 20.6259 34.4885 21.2925 35.5082 23.0381L33.0989 24.5447C32.569 23.6184 31.9959 23.2538 31.1075 23.2538C30.2009 23.2538 29.6269 23.8134 29.6269 24.5447C29.6269 25.4484 30.2019 25.8141 31.5292 26.3737L32.3025 26.6962C34.9332 27.7922 36.4167 28.9116 36.4167 31.4278C36.4167 34.1391 34.2278 35.625 31.2896 35.625C28.4155 35.625 26.7835 34.2141 25.875 32.4675L28.3072 30.8878ZM17.204 30.9647C17.6889 31.8141 18.4259 32.4675 19.4858 32.4675C20.4997 32.4675 21.0833 32.0756 21.0833 30.5522V20.625H24.2775V31.0322C24.2775 34.1888 22.4058 35.625 19.6727 35.625C17.203 35.625 15.4205 33.9881 14.6941 32.4675L17.204 30.9647Z" fill="#000001"/>
</svg>
