<svg width="46" height="46" viewBox="0 0 46 46" fill="none" xmlns="http://www.w3.org/2000/svg">
<rect width="45.6323" height="45.6323" rx="22.8161" fill="white"/>
<g clip-path="url(#clip0)">
<path d="M24.6639 14.61L23.603 16.519L19.9748 9.98857L8.83705 30.0333H16.3781C16.3781 31.0876 17.2006 31.9423 18.2151 31.9423H8.83705C8.1808 31.9423 7.57446 31.5783 7.24639 30.9877C6.91833 30.397 6.91836 29.6694 7.24648 29.0788L18.3843 9.03405C18.7124 8.44337 19.3189 8.07949 19.9752 8.07949C20.6316 8.07949 21.238 8.44337 21.5662 9.03405L24.6639 14.61Z" fill="#00C58E"/>
<path d="M32.704 29.0788L25.7248 16.519L24.6639 14.61L23.603 16.519L16.6245 29.0788C16.2964 29.6694 16.2964 30.397 16.6245 30.9877C16.9525 31.5783 17.5589 31.9423 18.2151 31.9423H31.1111C31.7675 31.9423 32.3741 31.5787 32.7023 30.988C33.0306 30.3973 33.0306 29.6695 32.7024 29.0788H32.704ZM18.2151 30.0333L24.6639 18.428L31.1111 30.0333H18.2151L18.2151 30.0333Z" fill="#2F495E"/>
<path d="M37.6938 30.9878C37.3657 31.5784 36.7594 31.9423 36.1033 31.9423H31.1111C32.1257 31.9423 32.9481 31.0876 32.9481 30.0333H36.0994L27.1576 13.9394L25.7248 16.519L24.6639 14.61L25.5671 12.9849C25.8952 12.3943 26.5017 12.0304 27.158 12.0304C27.8144 12.0304 28.4208 12.3943 28.749 12.9849L37.6938 29.0788C38.022 29.6695 38.022 30.3972 37.6938 30.9878Z" fill="#108775"/>
</g>
<defs>
<clipPath id="clip0">
<rect width="31" height="24" fill="white" transform="translate(7 8)"/>
</clipPath>
</defs>
</svg>
