<svg width="58" height="58" viewBox="0 0 58 58" fill="none" xmlns="http://www.w3.org/2000/svg">
<g clip-path="url(#clip0)">
<path d="M1.82088 33.5248C3.94229 40.7751 10.0572 55.5652 20.3902 54.2377C30.7538 52.9061 26.7066 39.5423 36.1938 37.7106C40.3701 36.9043 43.201 44.1324 47.3867 43.9076C52.7775 43.6179 55.5214 38.2817 57.0278 33.7956C60.222 24.2836 55.4386 8.15421 44.243 5.36069C34.4732 2.923 33.3304 14.8599 24.8354 11.3927C20.0607 9.44392 20.5378 3.62432 14.7226 2.45005C-2.86976 -1.10234 -1.00198 23.8772 1.82088 33.5248Z" fill="url(#paint0_linear)"/>
<path opacity="0.1" d="M39.6747 55.8932H18.3253C16.4483 55.8932 14.9268 54.3717 14.9268 52.4948V9.37097C14.9268 7.49401 16.4483 5.97253 18.3253 5.97253H39.6747C41.5517 5.97253 43.0731 7.49401 43.0731 9.37097V52.4947C43.0731 54.3716 41.5517 55.8932 39.6747 55.8932Z" fill="#2626BC"/>
<path d="M39.6747 53.1745H18.3253C16.4483 53.1745 14.9268 51.653 14.9268 49.776V6.65222C14.9268 4.77526 16.4483 3.25378 18.3253 3.25378H39.6747C41.5517 3.25378 43.0731 4.77526 43.0731 6.65222V49.7759C43.0731 51.6529 41.5517 53.1745 39.6747 53.1745Z" fill="#6583FE"/>
<path d="M14.9271 8.11456H43.0729V48.3135H14.9271V8.11456Z" fill="#2D58E0"/>
<path d="M27.0997 22.8732H21.3288C20.7032 22.8732 20.196 22.366 20.196 21.7404V16.4149C20.196 15.7893 20.7032 15.2821 21.3288 15.2821H27.0997C27.7254 15.2821 28.2325 15.7893 28.2325 16.4149V21.7404C28.2325 22.366 27.7254 22.8732 27.0997 22.8732Z" fill="#1F50C9"/>
<path d="M36.7194 22.8412H30.9485C30.3229 22.8412 29.8157 22.3341 29.8157 21.7084V16.383C29.8157 15.7573 30.3229 15.2501 30.9485 15.2501H36.7194C37.3451 15.2501 37.8522 15.7573 37.8522 16.383V21.7084C37.8522 22.3341 37.3451 22.8412 36.7194 22.8412Z" fill="#1F50C9"/>
<path d="M43.041 15.2501V22.8411H40.5998C39.9745 22.8411 39.467 22.3336 39.467 21.7083V16.383C39.467 15.7576 39.9745 15.2501 40.5998 15.2501H43.041Z" fill="#1F50C9"/>
<path d="M35.0991 10.5421H22.9009C22.5882 10.5421 22.3345 10.7957 22.3345 11.1085C22.3345 11.4212 22.5882 11.6749 22.9009 11.6749H35.0991C35.4118 11.6749 35.6655 11.4212 35.6655 11.1085C35.6655 10.7957 35.4119 10.5421 35.0991 10.5421Z" fill="white"/>
<path d="M27.0997 21.6823H21.3288C20.7032 21.6823 20.196 21.1751 20.196 20.5495V15.224C20.196 14.5984 20.7032 14.0912 21.3288 14.0912H27.0997C27.7254 14.0912 28.2325 14.5984 28.2325 15.224V20.5495C28.2325 21.1751 27.7254 21.6823 27.0997 21.6823Z" fill="#FF7EB8"/>
<path d="M25.8954 19.3153H23.5526C23.2399 19.3153 22.9862 19.5689 22.9862 19.8817C22.9862 20.1944 23.2399 20.4481 23.5526 20.4481H25.8954C26.2082 20.4481 26.4618 20.1944 26.4618 19.8817C26.4618 19.5689 26.2082 19.3153 25.8954 19.3153Z" fill="white"/>
<path d="M25.8954 17.4654H25.2519C24.9391 17.4654 24.6854 17.719 24.6854 18.0318C24.6854 18.3446 24.9391 18.5982 25.2519 18.5982H25.8954C26.2082 18.5982 26.4618 18.3446 26.4618 18.0318C26.4618 17.719 26.2082 17.4654 25.8954 17.4654Z" fill="white"/>
<path d="M36.7194 21.6505H30.9485C30.3229 21.6505 29.8157 21.1434 29.8157 20.5177V15.1922C29.8157 14.5665 30.3229 14.0593 30.9485 14.0593H36.7194C37.3451 14.0593 37.8522 14.5665 37.8522 15.1922V20.5176C37.8522 21.1433 37.3451 21.6505 36.7194 21.6505Z" fill="#02FFB3"/>
<path d="M35.5151 19.2834H33.1724C32.8596 19.2834 32.606 19.5371 32.606 19.8498C32.606 20.1626 32.8596 20.4162 33.1724 20.4162H35.5151C35.8279 20.4162 36.0816 20.1626 36.0816 19.8498C36.0816 19.5371 35.8279 19.2834 35.5151 19.2834Z" fill="white"/>
<path d="M35.5151 17.4334H34.8716C34.5588 17.4334 34.3052 17.6871 34.3052 17.9998C34.3052 18.3126 34.5588 18.5662 34.8716 18.5662H35.5151C35.8279 18.5662 36.0816 18.3126 36.0816 17.9998C36.0816 17.6871 35.8279 17.4334 35.5151 17.4334Z" fill="white"/>
<path d="M43.041 14.0594V21.6504H40.5998C39.9745 21.6504 39.467 21.1429 39.467 20.5176V15.1923C39.467 14.5669 39.9745 14.0594 40.5998 14.0594H43.041Z" fill="#9FB0FE"/>
<path d="M14.9271 48.3135V27.386C14.9271 25.8227 16.1947 24.5539 17.7591 24.5539H40.2409C41.8053 24.5539 43.0729 25.8227 43.0729 27.386V48.3135H14.9271Z" fill="white"/>
<path d="M39.6747 53.7407H18.3253C16.1391 53.7407 14.3604 51.9621 14.3604 49.7759V6.65233C14.3604 4.46611 16.1391 2.68748 18.3253 2.68748H39.6747C41.8609 2.68748 43.6395 4.46611 43.6395 6.65233V49.776C43.6395 51.9621 41.8609 53.7407 39.6747 53.7407ZM18.3253 3.8203C16.7637 3.8203 15.4932 5.09075 15.4932 6.65233V49.776C15.4932 51.3376 16.7637 52.608 18.3253 52.608H39.6747C41.2363 52.608 42.5067 51.3376 42.5067 49.776V6.65233C42.5067 5.09075 41.2363 3.8203 39.6747 3.8203H18.3253Z" fill="#2626BC"/>
<path d="M30.9805 6.3544H27.0195C26.7067 6.3544 26.4531 6.10076 26.4531 5.78799C26.4531 5.47522 26.7067 5.22159 27.0195 5.22159H30.9805C31.2933 5.22159 31.5469 5.47522 31.5469 5.78799C31.5469 6.10076 31.2933 6.3544 30.9805 6.3544Z" fill="#B7C5FF"/>
<path d="M33.6233 6.3544C33.9363 6.3544 34.19 6.10071 34.19 5.78776C34.19 5.47482 33.9363 5.22113 33.6233 5.22113C33.3104 5.22113 33.0567 5.47482 33.0567 5.78776C33.0567 6.10071 33.3104 6.3544 33.6233 6.3544Z" fill="#B7C5FF"/>
<path d="M26.5751 28.2141H24.2323C23.9196 28.2141 23.6659 28.4677 23.6659 28.7805C23.6659 29.0932 23.9196 29.3469 24.2323 29.3469H26.5751C26.8879 29.3469 27.1415 29.0932 27.1415 28.7805C27.1415 28.4677 26.8879 28.2141 26.5751 28.2141Z" fill="#00D890"/>
<path d="M38.1298 30.5106H24.2323C23.9196 30.5106 23.6659 30.7642 23.6659 31.077C23.6659 31.3898 23.9196 31.6434 24.2323 31.6434H38.1298C38.4426 31.6434 38.6962 31.3898 38.6962 31.077C38.6962 30.7642 38.4426 30.5106 38.1298 30.5106Z" fill="#9FB0FE"/>
<path d="M20.9486 31.6443H18.6522C18.3394 31.6443 18.0858 31.3907 18.0858 31.0779V28.7815C18.0858 28.4687 18.3394 28.2151 18.6522 28.2151H20.9486C21.2614 28.2151 21.515 28.4687 21.515 28.7815V31.0779C21.515 31.3907 21.2614 31.6443 20.9486 31.6443Z" fill="#02FFB3"/>
<path d="M26.5751 35.2312H24.2323C23.9196 35.2312 23.6659 35.4848 23.6659 35.7976C23.6659 36.1103 23.9196 36.364 24.2323 36.364H26.5751C26.8879 36.364 27.1415 36.1103 27.1415 35.7976C27.1415 35.4848 26.8879 35.2312 26.5751 35.2312Z" fill="#FF5BA8"/>
<path d="M38.1298 37.5276H24.2323C23.9196 37.5276 23.6659 37.7812 23.6659 38.094C23.6659 38.4068 23.9196 38.6604 24.2323 38.6604H38.1298C38.4426 38.6604 38.6962 38.4068 38.6962 38.094C38.6962 37.7812 38.4426 37.5276 38.1298 37.5276Z" fill="#9FB0FE"/>
<path d="M20.9486 38.6604H18.6522C18.3394 38.6604 18.0858 38.4068 18.0858 38.094V35.7976C18.0858 35.4848 18.3394 35.2312 18.6522 35.2312H20.9486C21.2614 35.2312 21.515 35.4848 21.515 35.7976V38.094C21.515 38.4068 21.2614 38.6604 20.9486 38.6604Z" fill="#FF7EB8"/>
<path d="M26.5751 42.2481H24.2323C23.9196 42.2481 23.6659 42.5018 23.6659 42.8145C23.6659 43.1273 23.9196 43.381 24.2323 43.381H26.5751C26.8879 43.381 27.1415 43.1273 27.1415 42.8145C27.1415 42.5018 26.8879 42.2481 26.5751 42.2481Z" fill="#6583FE"/>
<path d="M38.1298 44.5446H24.2323C23.9196 44.5446 23.6659 44.7982 23.6659 45.111C23.6659 45.4238 23.9196 45.6774 24.2323 45.6774H38.1298C38.4426 45.6774 38.6962 45.4238 38.6962 45.111C38.6962 44.7982 38.4426 44.5446 38.1298 44.5446Z" fill="#9FB0FE"/>
<path d="M20.9486 45.6774H18.6522C18.3394 45.6774 18.0858 45.4238 18.0858 45.111V42.8145C18.0858 42.5018 18.3394 42.2481 18.6522 42.2481H20.9486C21.2614 42.2481 21.515 42.5018 21.515 42.8145V45.111C21.515 45.4238 21.2614 45.6774 20.9486 45.6774Z" fill="#9FB0FE"/>
<path d="M47.3896 44.9998C46.497 44.9998 45.7707 44.2736 45.7707 43.3808C45.7707 42.4881 46.497 41.7618 47.3896 41.7618C48.2823 41.7618 49.0085 42.4881 49.0085 43.3808C49.0085 44.2736 48.2823 44.9998 47.3896 44.9998ZM47.3896 42.8947C47.1216 42.8947 46.9035 43.1128 46.9035 43.3809C46.9035 43.6491 47.1216 43.8671 47.3896 43.8671C47.6576 43.8671 47.8757 43.6491 47.8757 43.3809C47.8757 43.1128 47.6576 42.8947 47.3896 42.8947Z" fill="#6583FE"/>
<path d="M9.39316 20.8901C9.08039 20.8901 8.82675 20.6365 8.82675 20.3237C8.82675 19.9488 8.52191 19.644 8.14706 19.644C7.83429 19.644 7.58066 19.3904 7.58066 19.0776C7.58066 18.7648 7.83429 18.5112 8.14706 18.5112C8.52191 18.5112 8.82675 18.2063 8.82675 17.8315C8.82675 17.5187 9.08039 17.2651 9.39316 17.2651C9.70593 17.2651 9.95956 17.5187 9.95956 17.8315C9.95956 18.2063 10.2644 18.5112 10.6393 18.5112C10.952 18.5112 11.2057 18.7648 11.2057 19.0776C11.2057 19.3904 10.952 19.644 10.6393 19.644C10.2644 19.644 9.95956 19.9488 9.95956 20.3237C9.95956 20.6365 9.70593 20.8901 9.39316 20.8901Z" fill="#01ECA5"/>
<path d="M49.0114 50.1262C48.6985 50.1262 48.4449 49.8725 48.4449 49.5598C48.4449 49.1849 48.1401 48.8801 47.7653 48.8801C47.4524 48.8801 47.1989 48.6264 47.1989 48.3137C47.1989 48.0009 47.4524 47.7473 47.7653 47.7473C48.1401 47.7473 48.4449 47.4424 48.4449 47.0676C48.4449 46.7548 48.6985 46.5012 49.0114 46.5012C49.3242 46.5012 49.5778 46.7548 49.5778 47.0676C49.5778 47.4424 49.8826 47.7473 50.2574 47.7473C50.5703 47.7473 50.8239 48.0009 50.8239 48.3137C50.8239 48.6264 50.5703 48.8801 50.2574 48.8801C49.8826 48.8801 49.5778 49.1849 49.5778 49.5598C49.5778 49.8725 49.3242 50.1262 49.0114 50.1262Z" fill="#01ECA5"/>
<path d="M50.2574 17.0626C49.9446 17.0626 49.691 16.809 49.691 16.4962C49.691 16.1214 49.3862 15.8166 49.0114 15.8166C48.6985 15.8166 48.4449 15.5629 48.4449 15.2502C48.4449 14.9374 48.6985 14.6837 49.0114 14.6837C49.3862 14.6837 49.691 14.3789 49.691 14.0041C49.691 13.6913 49.9446 13.4377 50.2574 13.4377C50.5703 13.4377 50.8239 13.6913 50.8239 14.0041C50.8239 14.3789 51.1287 14.6837 51.5035 14.6837C51.8164 14.6837 52.0699 14.9374 52.0699 15.2502C52.0699 15.5629 51.8164 15.8166 51.5035 15.8166C51.1287 15.8166 50.8239 16.1214 50.8239 16.4962C50.8239 16.809 50.5703 17.0626 50.2574 17.0626Z" fill="#FF5BA8"/>
<path d="M8.22726 26.4745C7.91449 26.4745 7.66086 26.2209 7.66086 25.9081C7.66086 25.5333 7.35602 25.2284 6.98117 25.2284C6.6684 25.2284 6.41476 24.9748 6.41476 24.662C6.41476 24.3492 6.6684 24.0956 6.98117 24.0956C7.35602 24.0956 7.66086 23.7908 7.66086 23.4159C7.66086 23.1032 7.91449 22.8495 8.22726 22.8495C8.54003 22.8495 8.79367 23.1032 8.79367 23.4159C8.79367 23.7908 9.09851 24.0956 9.47336 24.0956C9.78613 24.0956 10.0398 24.3492 10.0398 24.662C10.0398 24.9748 9.78613 25.2284 9.47336 25.2284C9.09851 25.2284 8.79367 25.5333 8.79367 25.9081C8.79367 26.2209 8.54015 26.4745 8.22726 26.4745Z" fill="#FF5BA8"/>
</g>
<defs>
<linearGradient id="paint0_linear" x1="2.69847" y1="38.1" x2="52.0562" y2="9.6033" gradientUnits="userSpaceOnUse">
<stop stop-color="#DCFDEE" stop-opacity="0"/>
<stop offset="0.6288" stop-color="#D2F3E4"/>
</linearGradient>
<clipPath id="clip0">
<rect width="58" height="58" fill="white"/>
</clipPath>
</defs>
</svg>
