<svg width="54" height="54" viewBox="0 0 54 54" fill="none" xmlns="http://www.w3.org/2000/svg">
<path d="M50.052 8.64294H15.498C13.6371 8.64294 12.123 10.1571 12.123 12.0179V15.3845C11.164 15.7292 10.4747 16.6451 10.4747 17.7213V21.1043H4.60725C3.4897 21.1043 2.58014 22.0134 2.58014 23.1314V45.0174C2.58014 46.135 3.48928 47.0445 4.60725 47.0445H44.2977C44.5305 47.0445 44.7195 46.8555 44.7195 46.6227V45.3351C44.7195 44.3264 43.899 43.5059 42.8903 43.5059H39.1268L37.3637 39.2339H50.052C51.9129 39.2339 53.427 37.7198 53.427 35.8589V12.0179C53.427 10.1571 51.9129 8.64294 50.052 8.64294Z" fill="#E6E7E8"/>
<path d="M48.2047 7.37732H13.6506C12.0197 7.37732 10.6975 8.69948 10.6975 10.3304V14.0126C10.8317 13.9851 10.97 13.9708 11.1122 13.9708H26.5347C27.6737 13.9708 28.5977 14.8943 28.5977 16.0338V37.1246H48.2047C49.8357 37.1246 51.1578 35.8024 51.1578 34.1714V10.3304C51.1578 8.69948 49.8357 7.37732 48.2047 7.37732Z" fill="#0089EF"/>
<path d="M48.2047 7.37732H13.6506C12.0197 7.37732 10.6975 8.69948 10.6975 10.3304V11.5961C10.6975 9.9651 12.0197 8.64294 13.6506 8.64294H48.2047C49.8357 8.64294 51.1578 9.9651 51.1578 11.5961V10.3304C51.1578 8.69948 49.8357 7.37732 48.2047 7.37732Z" fill="white"/>
<path d="M28.5977 42.2398H36.9968L34.8857 37.1241H28.5977V42.2398Z" fill="#6DC9F7"/>
<path d="M41.043 42.2402H28.5976V42.8722C28.5976 44.0117 27.6742 44.9352 26.5347 44.9352H42.4499V43.6476C42.4503 42.8701 41.8201 42.2402 41.043 42.2402Z" fill="#0089EF"/>
<path d="M46.486 9.93979H15.3693C14.2045 9.93979 13.2599 10.8844 13.2599 12.0492V13.9704H26.5347C27.6737 13.9704 28.5976 14.8939 28.5976 16.0334V32.7312H46.486C47.6508 32.7312 48.5954 31.7866 48.5954 30.6218V12.0492C48.5954 10.8844 47.6512 9.93979 46.486 9.93979Z" fill="#D4FBFF"/>
<path d="M44.6588 12.7052H17.1965C16.7303 12.7052 16.3527 13.0828 16.3527 13.5489V13.9708H26.5351C27.6742 13.9708 28.5981 14.8943 28.5981 16.0338V20.4175H44.6593C45.1254 20.4175 45.503 20.0399 45.503 19.5737V13.5494C45.5026 13.0828 45.125 12.7052 44.6588 12.7052Z" fill="#FFD7E5"/>
<path d="M34.0858 21.9354H28.5976V29.8253H34.0858C34.552 29.8253 34.9295 29.4477 34.9295 28.9816V22.7791C34.9295 22.313 34.5515 21.9354 34.0858 21.9354Z" fill="#FA759E"/>
<path d="M37.4988 28.9816V22.7791C37.4988 22.313 37.8764 21.9354 38.3425 21.9354H44.6588C45.125 21.9354 45.5026 22.313 45.5026 22.7791V28.9816C45.5026 29.4477 45.125 29.8253 44.6588 29.8253H38.3425C37.8768 29.8253 37.4988 29.4477 37.4988 28.9816Z" fill="#FA759E"/>
<path d="M30.9277 35.9454C31.5342 35.9454 32.0258 35.4538 32.0258 34.8473C32.0258 34.2408 31.5342 33.7491 30.9277 33.7491C30.3212 33.7491 29.8295 34.2408 29.8295 34.8473C29.8295 35.4538 30.3212 35.9454 30.9277 35.9454Z" fill="#6DC9F7"/>
<path d="M26.5347 13.9708H11.1122C9.97313 13.9708 9.04922 14.8943 9.04922 16.0338V19.8387H13.5295C14.4159 19.8387 15.1348 20.5571 15.1348 21.4439V43.3304C15.1348 44.2167 14.4163 44.9356 13.5295 44.9356H26.5351C27.6742 44.9356 28.5981 44.0121 28.5981 42.8726V16.0334C28.5976 14.8943 27.6742 13.9708 26.5347 13.9708Z" fill="#0089EF"/>
<path d="M9.04922 16.9066V19.8387H13.5295C14.4159 19.8387 15.1348 20.5571 15.1348 21.4439V40.7371H28.5976V16.9066H9.04922Z" fill="#D4FBFF"/>
<path d="M17.0931 30.6851H15.1348V37.8844H17.0931C17.534 37.8844 17.8917 37.5271 17.8917 37.0858V31.4833C17.8917 31.0428 17.534 30.6851 17.0931 30.6851Z" fill="#FA759E"/>
<path d="M26.2925 19.7357H11.3548C11.2147 19.7357 11.0848 19.775 10.97 19.8387H13.5295C14.4159 19.8387 15.1348 20.5571 15.1348 21.4439V29.4524H26.2925C26.7334 29.4524 27.0911 29.095 27.0911 28.6537V20.5339C27.0907 20.0931 26.7334 19.7357 26.2925 19.7357Z" fill="#FFD7E5"/>
<path d="M19.3721 37.0862V31.4837C19.3721 31.0428 19.7294 30.6851 20.1707 30.6851H25.9091C26.3499 30.6851 26.7077 31.0424 26.7077 31.4837V37.0862C26.7077 37.5271 26.3503 37.8848 25.9091 37.8848H20.1707C19.7299 37.8848 19.3721 37.5271 19.3721 37.0862Z" fill="#FA759E"/>
<path d="M21.2148 15.7889H16.432C16.2666 15.7889 16.1312 15.6535 16.1312 15.4881V15.451C16.1312 15.2856 16.2666 15.1502 16.432 15.1502H21.2148C21.3802 15.1502 21.5156 15.2856 21.5156 15.451V15.4881C21.5156 15.6535 21.3802 15.7889 21.2148 15.7889Z" fill="#6DC9F7"/>
<path d="M22.7935 15.819C22.9871 15.819 23.1441 15.6621 23.1441 15.4685C23.1441 15.2748 22.9871 15.1179 22.7935 15.1179C22.5999 15.1179 22.4429 15.2748 22.4429 15.4685C22.4429 15.6621 22.5999 15.819 22.7935 15.819Z" fill="#6DC9F7"/>
<path d="M20.42 43.4329H17.2268C16.8252 43.4329 16.4962 43.1042 16.4962 42.7022V42.6119C16.4962 42.2103 16.8248 41.8812 17.2268 41.8812H20.42C20.8216 41.8812 21.1507 42.2099 21.1507 42.6119V42.7022C21.1507 43.1042 20.8221 43.4329 20.42 43.4329Z" fill="#6DC9F7"/>
<path d="M13.5295 44.9352H2.75991C1.87355 44.9352 1.15468 44.2167 1.15468 43.3299V21.4435C1.15468 20.5571 1.87313 19.8382 2.75991 19.8382H13.5295C14.4159 19.8382 15.1348 20.5567 15.1348 21.4435V43.3299C15.1348 44.2163 14.4159 44.9352 13.5295 44.9352Z" fill="#0089EF"/>
<path d="M15.1348 22.218V41.5328H1.15467V22.218H15.1348Z" fill="#D4FBFF"/>
<path d="M3.26405 29.2979V25.1707C3.26405 24.7046 3.64163 24.327 4.1078 24.327H12.1816C12.6478 24.327 13.0254 24.7046 13.0254 25.1707V29.2979C13.0254 29.7641 12.6478 30.1417 12.1816 30.1417H4.1078C3.64205 30.1417 3.26405 29.7641 3.26405 29.2979Z" fill="#FFD7E5"/>
<path d="M3.26405 38.5792V31.9212C3.26405 31.455 3.64163 31.0774 4.1078 31.0774H12.1816C12.6478 31.0774 13.0254 31.455 13.0254 31.9212V38.5796C13.0254 39.0458 12.6478 39.4234 12.1816 39.4234H4.1078C3.64205 39.4229 3.26405 39.0454 3.26405 38.5792Z" fill="#FA759E"/>
<path d="M10.0925 21.3121H6.1965C6.06783 21.3121 5.96236 21.2066 5.96236 21.0779V21.0281C5.96236 20.8995 6.06783 20.794 6.1965 20.794H10.0925C10.2212 20.794 10.3267 20.8995 10.3267 21.0281V21.0779C10.3267 21.207 10.2212 21.3121 10.0925 21.3121Z" fill="#6DC9F7"/>
<path d="M11.3624 21.3363C11.5192 21.3363 11.6463 21.2092 11.6463 21.0524C11.6463 20.8956 11.5192 20.7685 11.3624 20.7685C11.2055 20.7685 11.0784 20.8956 11.0784 21.0524C11.0784 21.2092 11.2055 21.3363 11.3624 21.3363Z" fill="#6DC9F7"/>
<path d="M9.46223 43.7176H6.82677C6.51417 43.7176 6.25809 43.462 6.25809 43.149V43.0283C6.25809 42.7157 6.51374 42.4596 6.82677 42.4596H9.46223C9.77484 42.4596 10.0309 42.7153 10.0309 43.0283V43.149C10.0309 43.462 9.77484 43.7176 9.46223 43.7176Z" fill="#6DC9F7"/>
<path d="M48.2047 6.95544H13.6506C11.7897 6.95544 10.2756 8.46955 10.2756 10.3304V13.6966C9.31669 14.0413 8.62735 14.9571 8.62735 16.0334V19.4164H2.75991C1.64237 19.4164 0.732803 20.3255 0.732803 21.4435V43.3299C0.732803 44.4475 1.64237 45.357 2.75991 45.357H42.4503C42.6832 45.357 42.8722 45.168 42.8722 44.9352V43.6476C42.8722 42.6389 42.0517 41.8184 41.043 41.8184H37.279L35.5164 37.5464H48.2051C50.066 37.5464 51.5801 36.0323 51.5801 34.1714V10.3304C51.5797 8.46955 50.0656 6.95544 48.2047 6.95544ZM11.1122 14.3927H26.5351C27.44 14.3927 28.1762 15.1289 28.1762 16.0338V16.4848H9.4711V16.0338C9.4711 15.1289 10.2073 14.3927 11.1122 14.3927ZM26.5351 44.5133H15.1681C15.4098 44.1796 15.5566 43.7729 15.5566 43.3299V41.159H28.1762V42.8726C28.1758 43.7771 27.4396 44.5133 26.5351 44.5133ZM1.57655 22.6395H14.7129V41.1104H1.57655V22.6395ZM9.4711 17.3285H28.1758V40.3152H15.5566V21.4435C15.5566 20.3259 14.6475 19.4164 13.5295 19.4164H9.4711V17.3285ZM2.75991 20.2601H13.5295C14.1818 20.2601 14.7129 20.7908 14.7129 21.4435V21.7957H1.57655V21.4435C1.57655 20.7913 2.10727 20.2601 2.75991 20.2601ZM1.57655 43.3299V41.9542H14.7129V43.3299C14.7129 43.9822 14.1822 44.5133 13.5295 44.5133H2.75991C2.10727 44.5133 1.57655 43.9822 1.57655 43.3299ZM42.0285 43.6472V44.5129H28.3956C28.7824 44.0745 29.0195 43.5012 29.0195 42.8718V42.6613H36.9968H41.043C41.5863 42.6617 42.0285 43.1038 42.0285 43.6472ZM36.3661 41.8179H29.0195V37.546H34.6035L36.3661 41.8179ZM50.736 34.171C50.736 35.567 49.6007 36.7023 48.2047 36.7023H34.8857H29.0195V33.153H46.486C47.882 33.153 49.0172 32.0178 49.0172 30.6218V24.5932C49.0172 24.3603 48.8282 24.1713 48.5954 24.1713C48.3625 24.1713 48.1735 24.3603 48.1735 24.5932V30.6218C48.1735 31.5524 47.4166 32.3093 46.486 32.3093H29.0195V16.0334C29.0195 14.6631 27.9049 13.5485 26.5347 13.5485H13.6818V12.0487C13.6818 11.1181 14.4387 10.3612 15.3693 10.3612H46.486C47.4166 10.3612 48.1735 11.1181 48.1735 12.0487V17.3281C48.1735 17.561 48.3625 17.75 48.5954 17.75C48.8282 17.75 49.0172 17.561 49.0172 17.3281V12.0492C49.0172 10.6532 47.882 9.51791 46.486 9.51791H15.3693C13.9734 9.51791 12.8381 10.6532 12.8381 12.0492V13.5489H11.1194V10.3309C11.1194 8.93488 12.2546 7.79962 13.6506 7.79962H48.2047C49.6007 7.79962 50.736 8.93488 50.736 10.3309V34.171Z" fill="#3A2C60"/>
<path d="M48.5954 18.4043C48.3625 18.4043 48.1735 18.5933 48.1735 18.8262V22.9395C48.1735 23.1723 48.3625 23.3613 48.5954 23.3613C48.8282 23.3613 49.0172 23.1723 49.0172 22.9395V18.8262C49.0172 18.5933 48.8282 18.4043 48.5954 18.4043Z" fill="#3A2C60"/>
</svg>
