<svg width="56" height="53" viewBox="0 0 56 53" fill="none" xmlns="http://www.w3.org/2000/svg">
<path d="M43.225 27.425L46.9 43.25L33 34.85L19.1 43.25L22.75 27.425L10.5 16.75L26.675 15.4L33 0.5L39.325 15.4L55.5 16.75L43.225 27.425ZM2.99999 29.075C3.47499 29.075 3.94999 28.925 4.37499 28.65L12.375 23.375L8.44999 19.975L1.62499 24.475C0.472491 25.225 0.152491 26.75 0.899991 28C1.39999 28.675 2.19999 29.075 2.99999 29.075ZM0.899991 51.875C1.39999 52.6 2.19999 53 2.99999 53C3.47499 53 3.94999 52.875 4.37499 52.6L14.65 45.825L15.5 42.4L16.275 38.775L1.62499 48.4C0.472491 49.175 0.152491 50.725 0.899991 51.875ZM1.62499 36.45C0.472491 37.2 0.152491 38.75 0.899991 39.9C1.39999 40.65 2.19999 41.025 2.99999 41.025C3.47499 41.025 3.94999 40.9 4.37499 40.625L17.925 31.75L18.6 28.775L16.3 26.75L1.62499 36.45Z" fill="#D7E7CE"/>
</svg>
